<svg xmlns="http://www.w3.org/2000/svg" viewBox="0 0 1200 240" width="1200" height="240" role="img" aria-label="Pietro  Full-Stack and AI Engineer">
  <defs>
    <linearGradient id="bg" x1="0" y1="0" x2="1" y2="1">
      <stop offset="0%" stop-color="#4C1D95"/>
      <stop offset="45%" stop-color="#6D28D9"/>
      <stop offset="100%" stop-color="#A78BFA"/>
    </linearGradient>
  </defs>
  <rect width="1200" height="240" fill="url(#bg)"/>
  <path fill="#0d1117" fill-opacity="0.18" d="M0,168 C180,148 280,208 480,184 C680,160 760,120 960,148 C1080,164 1140,176 1200,168 L1200,240 L0,240 Z">
    <animate attributeName="d" dur="8s" repeatCount="indefinite"
      values="M0,168 C180,148 280,208 480,184 C680,160 760,120 960,148 C1080,164 1140,176 1200,168 L1200,240 L0,240 Z;
              M0,176 C160,200 300,140 500,168 C700,196 820,150 1000,172 C1100,184 1160,160 1200,176 L1200,240 L0,240 Z;
              M0,168 C180,148 280,208 480,184 C680,160 760,120 960,148 C1080,164 1140,176 1200,168 L1200,240 L0,240 Z"/>
  </path>
  <path fill="#0d1117" d="M0,196 C200,176 340,220 560,200 C780,180 900,150 1100,178 C1160,186 1180,190 1200,188 L1200,240 L0,240 Z">
    <animate attributeName="d" dur="10s" repeatCount="indefinite"
      values="M0,196 C200,176 340,220 560,200 C780,180 900,150 1100,178 C1160,186 1180,190 1200,188 L1200,240 L0,240 Z;
              M0,188 C220,210 360,170 580,192 C800,214 920,170 1080,186 C1160,194 1180,200 1200,196 L1200,240 L0,240 Z;
              M0,196 C200,176 340,220 560,200 C780,180 900,150 1100,178 C1160,186 1180,190 1200,188 L1200,240 L0,240 Z"/>
  </path>
  <text x="600" y="92" text-anchor="middle" fill="#ffffff" font-size="40" font-weight="700" font-family="-apple-system, BlinkMacSystemFont, Segoe UI, Helvetica, Arial, sans-serif">Pietro | Full-Stack &amp; AI Engineer</text>
  <text x="600" y="132" text-anchor="middle" fill="#E9D5FF" font-size="20" font-family="-apple-system, BlinkMacSystemFont, Segoe UI, Helvetica, Arial, sans-serif">Founder @ Trinity Digital Studio  ·  Building CFA Broker</text>
</svg>
